<svg xmlns="http://www.w3.org/2000/svg" width="512" height="512" viewBox="0 0 512 512" fill="none" >
  <title>Solar Year full logo mark</title>
  <desc>Solar Year editable SVG asset generated from reference decomposition v0.1.0.</desc>
  <defs>
    <radialGradient id="sc-sky" cx="50%" cy="50%" r="60%">
      <stop offset="0%" stop-color="#FFD99A" stop-opacity="0.95"/>
      <stop offset="48%" stop-color="#143D4A"/>
      <stop offset="100%" stop-color="#0B132B"/>
    </radialGradient>
    <radialGradient id="sc-sun-glow" cx="50%" cy="62%" r="38%">
      <stop offset="0%" stop-color="#FFF8D8"/>
      <stop offset="40%" stop-color="#F4B13B"/>
      <stop offset="100%" stop-color="#F4B13B" stop-opacity="0"/>
    </radialGradient>
    <linearGradient id="sc-water" x1="0" y1="0" x2="0" y2="1">
      <stop offset="0%" stop-color="#143D4A"/>
      <stop offset="100%" stop-color="#0B132B"/>
    </linearGradient>
    <linearGradient id="sc-day-bg" x1="0" y1="0" x2="0" y2="1">
      <stop offset="0%" stop-color="#FBF7EF"/>
      <stop offset="60%" stop-color="#FBF7EF"/>
      <stop offset="100%" stop-color="#dfe5e1"/>
    </linearGradient>
    <linearGradient id="sc-night-bg" x1="0" y1="0" x2="0" y2="1">
      <stop offset="0%" stop-color="#0B132B"/>
      <stop offset="100%" stop-color="#06101D"/>
    </linearGradient>
    <filter id="sc-soft-glow" x="-40%" y="-40%" width="180%" height="180%">
      <feGaussianBlur stdDeviation="10" result="blur"/>
      <feMerge><feMergeNode in="blur"/><feMergeNode in="SourceGraphic"/></feMerge>
    </filter>
  </defs>
  
  <defs><clipPath id="clip-256-256-190"><circle cx="256" cy="256" r="190"/></clipPath></defs>
  <circle cx="256" cy="256" r="190" fill="url(#sc-sky)" stroke="#F4B13B" stroke-width="4"/>
  <g clip-path="url(#clip-256-256-190)">
    <circle cx="86" cy="86" r="1.0" fill="#FFD99A" opacity="0.35"/>
<circle cx="123" cy="139" r="1.35" fill="#FFD99A" opacity="0.44999999999999996"/>
<circle cx="160" cy="192" r="1.7" fill="#FFD99A" opacity="0.55"/>
<circle cx="197" cy="245" r="1.0" fill="#FFD99A" opacity="0.65"/>
<circle cx="234" cy="93" r="1.35" fill="#FFD99A" opacity="0.35"/>
<circle cx="271" cy="146" r="1.7" fill="#FFD99A" opacity="0.44999999999999996"/>
<circle cx="308" cy="199" r="1.0" fill="#FFD99A" opacity="0.55"/>
<circle cx="345" cy="252" r="1.35" fill="#FFD99A" opacity="0.65"/>
<circle cx="382" cy="100" r="1.7" fill="#FFD99A" opacity="0.35"/>
<circle cx="419" cy="153" r="1.0" fill="#FFD99A" opacity="0.44999999999999996"/>
<circle cx="116" cy="206" r="1.35" fill="#FFD99A" opacity="0.55"/>
<circle cx="153" cy="259" r="1.7" fill="#FFD99A" opacity="0.65"/>
<circle cx="190" cy="107" r="1.0" fill="#FFD99A" opacity="0.35"/>
<circle cx="227" cy="160" r="1.35" fill="#FFD99A" opacity="0.44999999999999996"/>
<circle cx="264" cy="213" r="1.7" fill="#FFD99A" opacity="0.55"/>
<circle cx="301" cy="266" r="1.0" fill="#FFD99A" opacity="0.65"/>
<circle cx="338" cy="114" r="1.35" fill="#FFD99A" opacity="0.35"/>
<circle cx="375" cy="167" r="1.7" fill="#FFD99A" opacity="0.44999999999999996"/>
<circle cx="412" cy="220" r="1.0" fill="#FFD99A" opacity="0.55"/>
<circle cx="109" cy="273" r="1.35" fill="#FFD99A" opacity="0.65"/>
<circle cx="146" cy="121" r="1.7" fill="#FFD99A" opacity="0.35"/>
<circle cx="183" cy="174" r="1.0" fill="#FFD99A" opacity="0.44999999999999996"/>
<circle cx="220" cy="227" r="1.35" fill="#FFD99A" opacity="0.55"/>
<circle cx="257" cy="280" r="1.7" fill="#FFD99A" opacity="0.65"/>
<circle cx="294" cy="128" r="1.0" fill="#FFD99A" opacity="0.35"/>
<circle cx="331" cy="181" r="1.35" fill="#FFD99A" opacity="0.44999999999999996"/>
<circle cx="368" cy="234" r="1.7" fill="#FFD99A" opacity="0.55"/>
<circle cx="405" cy="287" r="1.0" fill="#FFD99A" opacity="0.65"/>
    <rect x="66" y="291" width="380" height="190" fill="url(#sc-water)" opacity="0.78"/>
    <path d="M229.7 281.4L177.1 262.3" stroke="#FFD99A" stroke-width="1.5" opacity="0.55"/> <path d="M232.8 275.3L186.4 244.0" stroke="#FFD99A" stroke-width="1.5" opacity="0.55"/> <path d="M237.3 270.2L199.8 228.6" stroke="#FFD99A" stroke-width="1.5" opacity="0.55"/> <path d="M242.9 266.3L216.6 216.8" stroke="#FFD99A" stroke-width="1.5" opacity="0.55"/> <path d="M249.2 263.8L235.7 209.5" stroke="#FFD99A" stroke-width="1.5" opacity="0.55"/> <path d="M256.0 263.0L256.0 207.0" stroke="#FFD99A" stroke-width="1.5" opacity="0.55"/> <path d="M262.8 263.8L276.3 209.5" stroke="#FFD99A" stroke-width="1.5" opacity="0.55"/> <path d="M269.1 266.3L295.4 216.8" stroke="#FFD99A" stroke-width="1.5" opacity="0.55"/> <path d="M274.7 270.2L312.2 228.6" stroke="#FFD99A" stroke-width="1.5" opacity="0.55"/> <path d="M279.2 275.3L325.6 244.0" stroke="#FFD99A" stroke-width="1.5" opacity="0.55"/> <path d="M282.3 281.4L334.9 262.3" stroke="#FFD99A" stroke-width="1.5" opacity="0.55"/>
    <circle cx="256" cy="291" r="82" fill="url(#sc-sun-glow)" filter="url(#sc-soft-glow)"/>
    <path d="M198 291a58 58 0 0 1 116 0" fill="#F4B13B"/>
    <path d="M231 277V211M281 277V221M256 286V196" stroke="#FFD99A" stroke-width="2" opacity="0.55"/>
    <path d="M196.0 303H316.0" stroke="#FFD99A" stroke-width="3" stroke-linecap="round" opacity="0.75"/> <path d="M181.0 315H331.0" stroke="#FFD99A" stroke-width="3" stroke-linecap="round" opacity="0.66"/> <path d="M168.0 327H344.0" stroke="#FFD99A" stroke-width="3" stroke-linecap="round" opacity="0.57"/> <path d="M158.0 339H354.0" stroke="#FFD99A" stroke-width="3" stroke-linecap="round" opacity="0.48"/> <path d="M151.0 351H361.0" stroke="#FFD99A" stroke-width="3" stroke-linecap="round" opacity="0.39"/>
  </g>
  <circle cx="256" cy="256" r="136.8" stroke="#F6F2EB" stroke-width="4" opacity="0.82"/>
  <path d="M256 44V84M256 428V468M44 256H84M428 256H468" stroke="#FFD99A" stroke-width="5" stroke-linecap="round" opacity="0.85"/>
  <path d="M90 332C218 388,338 382,426 274C464 240,448 206,334 198" stroke="#F6F2EB" stroke-width="5" stroke-linecap="round" stroke-dasharray="10 12" opacity="0.92"/>
  <circle cx="432" cy="212" r="18" fill="#F4B13B" stroke="#FFD99A" stroke-width="4"/>

</svg>
